<svg xmlns="http://www.w3.org/2000/svg" id="Capa_2" viewBox="0 0 918.23 924.54"><defs><style>      .cls-1 {        stroke: #9b4e2b;        stroke-miterlimit: 10;        stroke-width: .2px;      }      .cls-1, .cls-2 {        fill: #9b4e2b;      }      .cls-3 {        opacity: .96;      }    </style></defs><g id="Capa_1-2" data-name="Capa_1"><g class="cls-3"><path class="cls-2" d="M635.97,388.64v-22.25h-83.24l-.6-79.93-54.45,13.46v66.47h-117.04l-.6-79.93-54.45,13.46v66.47h-43.33v22.25h43.33v168.63c0,16.79,2.54,30.45,7.61,40.99,5.07,10.54,11.22,18.73,18.44,24.59,7.22,5.86,14.74,9.86,22.55,12.01,7.8,2.14,14.25,3.22,19.32,3.22,7.8,0,15.22-.88,22.25-2.63,7.02-1.76,13.46-4.59,19.32-8.49,5.85-3.9,11.21-8.78,16.09-14.64,4.88-5.86,9.08-12.68,12.59-20.5l-21.07-8.78c-4.3,8.2-9.08,14.93-14.36,20.2-5.27,5.27-11.81,7.9-19.61,7.9-4.68,0-8.78-1.26-12.29-3.81-3.51-2.53-6.55-6.24-9.08-11.12-2.55-4.88-4.4-11.13-5.56-18.74-1.17-7.61-1.76-16.3-1.76-26.06v-162.78h117.64v168.63c0,16.79,2.54,30.45,7.61,40.99,5.07,10.54,11.22,18.73,18.44,24.59,7.22,5.86,14.74,9.86,22.55,12.01,7.8,2.14,14.25,3.22,19.32,3.22,7.8,0,15.22-.88,22.25-2.63,7.02-1.76,13.46-4.59,19.32-8.49,5.85-3.9,11.21-8.78,16.09-14.64,4.88-5.86,9.08-12.68,12.59-20.5l-21.07-8.78c-4.3,8.2-9.08,14.93-14.35,20.2-5.27,5.27-11.81,7.9-19.61,7.9-4.68,0-8.78-1.26-12.29-3.81-3.51-2.53-6.55-6.24-9.08-11.12-2.55-4.88-4.4-11.13-5.56-18.74-1.17-7.61-1.76-16.3-1.76-26.06v-162.78h83.83Z"></path><g><g><path class="cls-2" d="M229.91,847.22c-2.86,6.87.17,13.35,7.89,17.49,7.17,3.85,13.39,3.05,16.84-3.39,4.44-8.27-2.13-13.69-8.62-19.89-4.8-4.95-11.14-11.67-5.86-21.5,4.63-8.65,13.22-10.07,23.24-4.7,9.19,4.93,13.32,12.24,10.39,21.45l-5.09-1.08c1.96-6.53.34-11.89-7.3-15.99-7.17-3.85-13.06-2.99-16.22,2.89-3.65,6.8,1.06,11.69,7.23,17.61,5.21,5.28,13.2,12.89,7.28,23.92-4.98,9.28-14.02,10.47-24.23,4.99-7.35-3.95-15.11-11.31-10.76-22.95l5.19,1.13Z"></path><path class="cls-2" d="M314.71,827.06c.76-2.05,2.99-3.22,5.63-2.24,2.83,1.06,3.76,3.63,2.48,7.05-1.53,4.1-6.32,8.88-12.12,8.94l-1.29-3.71c3.37-.08,6.99-2.63,8.12-5.09-2.62-.43-3.73-2.51-2.83-4.95Z"></path><path class="cls-2" d="M339.85,891.59l-9.66,14.85-5.69-1.36,34.59-51.79,6.6,1.58,7.31,61.81-5.68-1.36-2-17.65-25.46-6.09ZM362.96,877.06c-1.29-11.25-1.73-17.9-1.68-18.1l-.2-.05c-.15.18-3.83,6.16-10.11,15.81l-8.22,12.41,21.91,5.25-1.69-15.32Z"></path><path class="cls-2" d="M457.38,924.29c.32-6.77.5-8.44.51-8.65h-.1c-2.66,3.32-9.32,9.38-20.68,8.87-15.74-.73-26.14-13.11-25.29-31.66.85-18.76,12.53-29.62,28.06-28.9,9.59.44,19.72,5.08,23.41,18l-5.28,1.11c-1.92-5.84-7.12-13.39-18.16-13.89-12.62-.58-21.59,8.31-22.29,23.74-.74,16.05,7.49,25.83,20.51,26.43,10.11.46,17.58-5.15,19.99-9.84l.41-8.97-16.26-.74.24-5.21,21.47.98-1.32,28.98-5.22-.24Z"></path><path class="cls-2" d="M513.68,904.11l-3.42,17.39-5.78.86,12.78-60.99,6.72-.99,29.84,54.66-5.78.86-8.44-15.63-25.92,3.85ZM529.71,882c-5.37-9.97-8.28-15.97-8.3-16.18l-.2.03c-.08.22-1.26,7.15-3.49,18.46l-3.02,14.58,22.31-3.3-7.3-13.59Z"></path><path class="cls-2" d="M604.37,875.25c-2.1.94-4.38,1.71-5.56,2.11l-6.23,2.1,7.82,23.14-5.35,1.8-18.72-55.37,15.04-5.08c12.45-4.21,21.52-.88,24.99,9.4,2.9,8.61-.47,15.25-7.18,19.17l21.47,19.84-5.73,1.94-20.55-19.06ZM600.83,871.6c8.99-3.04,12.94-8.34,10.29-16.15-2.74-8.1-9.28-9.53-18.18-6.52l-9.59,3.24,7.69,22.74,9.79-3.31Z"></path><path class="cls-2" d="M662.34,811.19c13.53-7.65,28.95-3.28,38.25,13.18,9.28,16.46,5.12,32-8.43,39.65-13.46,7.59-28.93,3.14-38.21-13.32-9.29-16.46-5.07-31.91,8.39-39.51ZM689.59,859.47c10.64-6.01,13.85-18.37,6-32.28s-20.04-17.46-30.68-11.45c-10.73,6.06-13.8,18.23-5.96,32.14,7.91,14.01,19.93,17.65,30.65,11.6ZM656.45,809.24l.51-18.63,5.17-1.24-.87,17.15-4.81,2.72Z"></path></g><g><path class="cls-2" d="M30.07,597.69l50.13-17.52,1.86,5.32-50.13,17.52,6.2,17.72-5.02,1.76-14.29-40.87,5.02-1.75,6.23,17.83Z"></path><path class="cls-2" d="M9.13,541.78l-5.79-35.18,5.25-.86,4.88,29.62,19.85-3.27-3.82-23.24,5.14-.85,3.82,23.24,22.12-3.64-4.95-30.13,5.25-.87,5.86,35.69-57.59,9.47Z"></path><path class="cls-2" d="M34.06,445.79c.18,2.29.14,4.69.11,5.95l-.1,6.56,24.39.38-.09,5.63-58.38-.89.24-15.85c.2-13.13,6.37-20.55,17.21-20.38,9.07.14,14.2,5.53,15.64,13.17l25.86-13.58-.09,6.05-24.8,12.97ZM29.44,447.9c.14-9.49-3.53-14.96-11.76-15.09-8.54-.13-12.07,5.55-12.21,14.93l-.15,10.11,23.97.37.15-10.33Z"></path><path class="cls-2" d="M41.12,372.5c-.2,2.29-.64,4.65-.87,5.89l-1.17,6.46,24.01,4.38-1.01,5.54-57.49-10.47,2.84-15.6c2.36-12.94,9.66-19.24,20.33-17.3,8.94,1.62,13.11,7.8,13.29,15.57l27.76-9.15-1.08,5.95-26.62,8.73ZM36.21,373.83c1.71-9.34-1.02-15.36-9.13-16.83-8.42-1.53-12.83,3.49-14.51,12.74l-1.81,9.96,23.61,4.3,1.85-10.16Z"></path><path class="cls-2" d="M63.98,315.45l13.52,11.46-2.06,5.47-47.07-40.83,2.38-6.35,62.29.49-2.06,5.47-17.76-.22-9.23,24.52ZM52.44,290.69c-11.33-.14-17.98-.53-18.18-.6l-.08.19c.17.17,5.64,4.58,14.44,12.02l11.29,9.72,7.94-21.1-15.42-.24Z"></path><path class="cls-2" d="M116.97,211.99c6.51,8.73,7.8,19.42,1.6,29.55-8.25,13.52-23.96,16.86-39.89,7.14-16-9.77-20.03-25.17-11.83-38.6,5.22-8.54,14.35-14.68,26.95-11.74l-1.53,5.3c-3.49-.67-14.13-2.04-20.87,8.98-6.68,10.94-3.08,23.03,10.17,31.12,13.79,8.42,26.02,5.76,32.54-4.91,4.89-8.01,3.67-16.2-1.22-22.98l4.06-3.86Z"></path><path class="cls-2" d="M121.08,138.36c10.55-11.41,26.56-11.97,40.42.85,13.85,12.81,14.63,28.88,4.09,40.29-10.49,11.34-26.56,11.82-40.42-1-13.87-12.82-14.57-28.81-4.09-40.14ZM161.76,175.97c8.29-8.96,7.56-21.7-4.15-32.54-11.73-10.84-24.41-10.48-32.7-1.52-8.35,9.03-7.56,21.56,4.15,32.39,11.79,10.91,24.33,10.71,32.7,1.67Z"></path><path class="cls-2" d="M187.79,86.62l32.1,42.33-4.49,3.41-32.1-42.33-14.97,11.35-3.21-4.24,34.5-26.17,3.22,4.24-15.05,11.41Z"></path><path class="cls-2" d="M255.18,44.9l24.2,47.29-5.02,2.57-24.2-47.29-16.72,8.56-2.42-4.74,38.55-19.73,2.42,4.74-16.82,8.61Z"></path><path class="cls-2" d="M317.78,57.3l-.5,17.72-5.56,1.81,2.51-62.27,6.46-2.09,38.49,48.96-5.55,1.8-10.92-14.01-24.92,8.08ZM329.93,32.84c-6.96-8.93-10.81-14.37-10.87-14.57l-.2.06c-.04.23-.05,7.26-.38,18.77l-.55,14.88,21.45-6.96-9.45-12.18Z"></path><path class="cls-2" d="M588.02,39.6c2.24-8.47,5.49-20.35,5.51-20.45l-.2-.06-25.91,30.27-4.24-1.12-7.28-39.37-.2-.05c-.03.1-3.03,12.25-5.27,20.73l-7.49,28.34-5.35-1.41,14.93-56.48,6.95,1.84,5.19,26.51c1.77,9.21,2.47,13.93,2.57,13.95l.19.05c.1.03,3.04-3.73,9.26-10.93l17.58-20.39,6.66,1.76-14.92,56.48-5.45-1.44,7.46-28.24Z"></path><path class="cls-2" d="M631.21,69.66l-12.69,12.37-5.25-2.57,45.14-42.96,6.09,2.99-6.43,61.94-5.25-2.58,1.92-17.65-23.53-11.54ZM656.96,60.54c1.22-11.26,2.24-17.84,2.34-18.03l-.19-.1c-.19.14-5.09,5.18-13.34,13.22l-10.75,10.31,20.23,9.92,1.71-15.32Z"></path><path class="cls-2" d="M712.28,108.45c-1.97-1.2-3.91-2.62-4.91-3.36l-5.28-3.9-14.48,19.65-4.53-3.34,34.64-47.01,12.76,9.4c10.58,7.8,13.04,17.12,6.6,25.85-5.37,7.3-12.76,8.35-19.81,5.09l-3.97,28.95-4.86-3.59,3.86-27.73ZM713.23,103.46c7.64,5.63,14.23,5.82,19.12-.8,5.07-6.89,2.5-13.06-5.07-18.63l-8.14-6-14.23,19.31,8.31,6.12Z"></path><path class="cls-1" d="M807.39,181.33c10.44,5.16,16.81,5.26,22.05,1.29,5.97-4.52,6.62-11.54,2.65-16.78-5.35-7.06-14.06-6.77-19.95-2.3-3.43,2.59-5.83,6.82-7.45,12.39l-.23.17c-7.38-3.11-15.02-3.97-21.87,1.21-7.64,5.79-9.27,16.19-3.21,24.2,3.91,5.17,9.14,8.76,17.7,10.08-.64,4.14-1.13,6.82-1.53,9.63l3.31,4.37c.85-5.23,1.5-9.5,2.18-13.91,6.43.17,13.84-2.45,22.69-7.09l-2.53-3.35c-8.1,4.42-14.15,6.58-19.59,6.93,1.39-6.78,3.5-17.31,5.58-26.67l.22-.17ZM814.97,166.54c4.44-3.36,10.38-3.85,13.95.88,3.53,4.66,1.23,9.49-2.27,12.14-4.94,3.74-11.09,1.98-18.56-1.53,1.21-4,2.72-8.36,6.88-11.5ZM797.62,208.08c-5.42-.36-10.95-2.82-14.81-7.92-4.85-6.4-3.69-14.72,2.85-19.68,6.42-4.84,13.64-2.87,17.9-1.17-2.62,11.83-4.74,23.4-5.95,28.77Z"></path><path class="cls-2" d="M865.33,304.12c1.31,5.19.76,14.01-8.98,17.72-9.07,3.46-17.35-.41-21.71-11.82l-7.33-19.21,54.6-20.83,6.76,17.74c3.65,9.55.11,17.83-7.5,20.73-7.89,3.02-12.94-.53-15.55-4.45l-.29.11ZM839.32,308.24c2.83,7.41,8.59,10.8,15.21,8.27,7.22-2.76,8.93-9.99,6.2-17.11l-5.09-13.35-21.64,8.26,5.32,13.94ZM864.57,296.27c2.05,5.36,7.23,9.86,14.06,7.26,5.55-2.12,7.72-7.86,5.11-14.69l-4.49-11.8-19.2,7.33,4.53,11.89Z"></path><path class="cls-2" d="M877.09,370.84c-.64-2.22-1.08-4.57-1.32-5.8l-1.24-6.46-23.97,4.61-1.07-5.53,57.37-11.03,2.99,15.57c2.48,12.91-2.04,21.43-12.69,23.48-8.91,1.71-15.04-2.53-18.02-9.71l-22.56,18.58-1.15-5.95,21.66-17.76ZM881.19,367.82c1.8,9.33,6.51,13.94,14.59,12.39,8.4-1.62,10.71-7.9,8.93-17.12l-1.91-9.94-23.55,4.53,1.95,10.14Z"></path><path class="cls-2" d="M876.28,432.84l-16.77-5.68-.09-5.84,58.71,20.68.1,6.78-58.05,22.36-.09-5.84,16.58-6.3-.39-26.16ZM896.07,451.62c10.57-4.02,16.9-6.1,17.11-6.1v-.21c-.22-.1-6.91-2.19-17.83-5.88l-14.04-4.9.34,22.52,14.41-5.43Z"></path><path class="cls-2" d="M872.1,503.83c-7.42-.48-12.57,4.48-13.98,13.12-1.32,8.03,1.45,13.66,8.65,14.84,9.26,1.52,12.26-6.44,16.03-14.58,3.12-6.14,7.42-14.3,18.42-12.5,9.66,1.59,13.8,9.24,11.96,20.45-1.69,10.28-7.26,16.55-16.91,16.76l-.62-5.18c6.8-.25,11.34-3.52,12.74-12.06,1.32-8.02-1.4-13.33-7.98-14.41-7.6-1.25-10.71,4.79-14.31,12.54-3.31,6.64-7.91,16.65-20.26,14.63-10.39-1.71-14.43-9.87-12.55-21.29,1.35-8.23,5.81-17.96,18.21-17.61l.61,5.28Z"></path><path class="cls-2" d="M857.19,576.81l-13.74-11.17,1.95-5.51,47.83,39.84-2.27,6.39-62.21.74,1.95-5.5,17.75-.13,8.73-24.67ZM869.2,601.31c11.32-.08,17.97.17,18.17.24l.06-.2c-.15-.17-5.72-4.46-14.65-11.71l-11.46-9.49-7.51,21.23,15.39-.08Z"></path></g><circle class="cls-2" cx="121.9" cy="729.6" r="5.01"></circle><circle class="cls-2" cx="796.62" cy="729.6" r="5.01"></circle></g></g></g></svg>